{"title":"The Adventurer The Curse of the Midas Box 2014 R5 DVDRip XviD-Ps","uid":9466882,"size":738636831,"categoryP":"video","categoryS":"movies","magnet":"?xt=urn:btih:8ba46fc54692e3f1afc05377f973f3aec0e632cd&amp;dn=The+Adventurer+The+Curse+of+the+Midas+Box+2014+R5+DVDRip+XviD-Ps&amp;tr=udp%3A%2F%2Ftracker.openbittorrent.com%3A80&amp;tr=udp%3A%2F%2Fopen.demonii.com%3A1337&amp;tr=udp%3A%2F%2Ftracker.coppersurfer.tk%3A6969&amp;tr=udp%3A%2F%2Fexodus.desync.com%3A6969","seeders":18,"leechers":2,"uploader":"TKTh3K1ng","files":5,"time":1389471632,"description":"[img]http://imageshack.com/a/img545/2469/dyhr.png[/img]\n\nThe Adventurer The Curse of the Midas Box 2014 R5 DVDRip XviD-PsiX\n\n\nImdb.... &lt;a href=&quot;\nhttp://www.imdb.com/title/tt1376213/&quot; rel=&quot;nofollow&quot; target=&quot;_NEW&quot;&gt;\nhttp://www.imdb.com/title/tt1376213/&lt;/a&gt;\n\nPlot :\nAncient mysteries. Powerful evil. \nAnd a fearless hero's quest through a fantastical realm \nof steam-powered wonders and sinister magic... \n\nDirector:\nJonathan Newman\nWriters:\nChristian Taylor , Matthew Huffman \nStars:\nMichael Sheen, Lena Headey, Sam Neill\n\n\n\nInfo :\nFormat                                   : AVI\nFormat/Info                              : Audio Video Interleave\nFile size                                : 700 MiB\nDuration                                 : 1h 34mn\nOverall bit rate mode                    : Variable\nOverall bit rate                         : 1 034 Kbps\n\nVideo\nID                                       : 0\nFormat                                   : MPEG-4 Visual\nFormat profile                           : Advanced Simple@L5\nFormat settings, BVOP                    : 2\nFormat settings, QPel                    : No\nFormat settings, GMC                     : No warppoints\nFormat settings, Matrix                  : Default (H.263)\nMuxing mode                              : Packed bitstream\nCodec ID                                 : XVID\nCodec ID/Hint                            : XviD\nDuration                                 : 1h 34mn\nBit rate                                 : 893 Kbps\nWidth                                    : 640 pixels\nHeight                                   : 352 pixels\nDisplay aspect ratio                     : 16:9\nFrame rate                               : 25.000 fps\nColor space                              : YUV\nChroma subsampling                       : 4:2:0\nBit depth                                : 8 bits\nScan type                                : Interlaced\nScan order                               : Bottom Field First\nCompression mode                         : Lossy\nBits/(Pixel*Frame)                       : 0.159\nStream size                              : 604 MiB (86%)\nWriting library                          : XviD 1.2.1 (UTC 2008-12-04)\n\nAudio\nID                                       : 1\nFormat                                   : MPEG Audio\nFormat version                           : Version 1\nFormat profile                           : Layer 3\nCodec ID                                 : 55\nCodec ID/Hint                            : MP3\nDuration                                 : 1h 34mn\nBit rate mode                            : Variable\nBit rate                                 : 128 Kbps\nChannel count                            : 2 channels\nSampling rate                            : 48.0 KHz\nCompression mode                         : Lossy\nStream size                              : 87.0 MiB (12%)\n\nSample.....................Yes\nSubs.......................No\n\n\n\n\n","torrent":{"xt":"urn:btih:8ba46fc54692e3f1afc05377f973f3aec0e632cd","amp;dn":"The+Adventurer+The+Curse+of+the+Midas+Box+2014+R5+DVDRip+XviD-Ps","amp;tr":["udp%3A%2F%2Ftracker.openbittorrent.com%3A80","udp%3A%2F%2Fopen.demonii.com%3A1337","udp%3A%2F%2Ftracker.coppersurfer.tk%3A6969","udp%3A%2F%2Fexodus.desync.com%3A6969"],"infoHash":"8ba46fc54692e3f1afc05377f973f3aec0e632cd","infoHashBuffer":{"type":"Buffer","data":[139,164,111,197,70,146,227,241,175,192,83,119,249,115,243,174,192,230,50,205]},"announce":[],"urlList":[]}}